<svg version="1.1" xmlns="http://www.w3.org/2000/svg" x="0" y="0" viewBox="-521 538 253 221" xml:space="preserve" class="cu-crown"><style type="text/css">
	.st0{fill:#1d497d;}
	.st1{fill:#FFFFFF;}
</style><path class="st0" d="M-393.2 539.1c0 0-5.3-0.2-6.2 0.6 -1 0.8-0.1 10.7-0.7 11.4 -0.6 0.7-10.9-0.4-11.7 0.6 -0.8 1.1-1.1 12 0.2 13.2 1.3 1.1 10.5-0.6 11.6 0.4 0.6 0.5 0.9 11-0.1 12.2 -14.4 7.9-16 26.2-3.6 35.6 -2.6 2.6-5.5 7.2-7.6 6.8 -26.8-4.9-50.6-19.6-78.2-17.4 -15.4 1.2-28 12.1-30.7 27.7 -4.8 28.1 15.4 49.7 25.2 73.5 3.1 7.5 5.8 17.6 5.3 26.3h96.5"/><path class="st1" d="M-446.7 671.9c1.4 0.7 2.7 11.8 4.1 13 1.4 1.1 11.8-0.4 13.1 0.8s3.5 10.2 2.7 11.3c-0.8 1.2-12.4-0.6-13.3 0.6 -1.1 3.7 2.4 9.8 6.7 13.6 3.1 2.7 6.5 4.3 10.8 4.3 6.5 0 14.4-9 16.8-23.1 1.7-9.9-2.4-29.4-6.6-38.5 -8.9-19.7-3.5-18.5-6-20 -10-6.2-27-11.4-39.9-15.2 -12.3-3.7-24.3-6.1-35.7-1.8 -18.8 7.2-14.4 31-7.3 45.6 9.7 19.8 26.1 48.5 39.3 52.2 7.1 2 11.5-1 11.5-6.7 0-4.5-0.8-8.9-3.6-11.1 0 0-13.6-0.1-15.1-1.3 -1.4-1.2-2.5-9.4-2.2-11.1 0.3-1.6 14.9 1.3 15.7-0.2 0.8-1.6-3.8-10.9-3-12.5C-457.7 670.2-446.7 671.9-446.7 671.9"/><polyline class="st0" points="-393.2 743.1 -491.8 743.1 -491.8 759.7 -393.2 759.7 "/><path class="st0" d="M-395.4 539.1c0 0 5.3-0.2 6.2 0.6 1 0.8 0.1 10.7 0.7 11.4 0.6 0.7 10.9-0.4 11.7 0.6 0.8 1.1 1.1 12-0.2 13.2 -1.3 1.1-10.5-0.6-11.6 0.4 -0.6 0.5-0.9 11 0.1 12.2 14.4 7.9 16 26.2 3.6 35.6 2.6 2.6 5.5 7.2 7.6 6.8 26.7-4.7 50.5-19.5 78.1-17.3 15.4 1.2 28 12.1 30.7 27.7 4.8 28.1-15.4 49.7-25.2 73.5 -3.1 7.5-5.8 17.6-5.3 26.3h-96.5"/><path class="st1" d="M-341.9 671.9c-1.4 0.7-2.7 11.8-4.1 13 -1.4 1.1-11.8-0.4-13.1 0.8s-3.5 10.2-2.7 11.3c0.8 1.2 12.4-0.6 13.3 0.6 1.1 3.7-2.4 9.8-6.7 13.6 -3.1 2.7-6.5 4.3-10.8 4.3 -6.5 0-14.4-9-16.8-23.1 -1.7-9.9 2.4-29.4 6.5-38.5 8.9-19.7 3.5-18.5 6-20 10-6.2 27-11.4 39.9-15.2 12.3-3.7 24.3-6.1 35.7-1.8 18.8 7.2 14.4 31 7.3 45.6 -9.7 19.8-26.1 48.5-39.3 52.2 -7.1 2-11.5-1-11.5-6.7 0-4.5 0.8-8.9 3.6-11.1 0 0 13.6-0.1 15.1-1.3 1.4-1.2 2.5-9.4 2.2-11.1 -0.3-1.6-14.9 1.3-15.7-0.2 -0.8-1.6 3.8-10.9 3-12.5C-330.9 670.2-341.9 671.9-341.9 671.9"/><polyline class="st0" points="-395.4 743.1 -296.8 743.1 -296.8 759.7 -395.4 759.7 "/></svg>