<?xml version="1.0" encoding="utf-8"?>
<!-- Generator: Adobe Illustrator 24.2.0, SVG Export Plug-In . SVG Version: 6.00 Build 0)  -->
<svg version="1.1" id="Layer_1" xmlns="http://www.w3.org/2000/svg" xmlns:xlink="http://www.w3.org/1999/xlink" x="0px" y="0px"
	 viewBox="0 0 221.7 219.1" style="enable-background:new 0 0 221.7 219.1;" xml:space="preserve">
<style type="text/css">
	.st0{fill:none;}
</style>
<g>
	<path class="st0" d="M180.7,130.2c-1.4,1.9-27,8.8-27,11.4c0,2.2,1.8,8.7,4.1,13.8c0.5,1.1,1,2.2,1.6,3.2c2.3,3.8,9.4,7.3,9.4,8.9
		s-7.6,6.1-7.6,8.1s6.2,3.6,8.6,6.4s0.4,9.6,5.1,9.6s2.7-6.8,5.1-9.6s8.7-4.3,8.7-6.5s-8.2-6.2-8.2-7.9s5.4-3.6,7.4-6.2
		c1.3-1.7,2.4-3.5,3.3-5.3c0.6-1.1,1.1-2.3,1.6-3.5c0.9-2.2,2.4-5,2.4-6.7S185,135.1,180.7,130.2z"/>
	<path class="st0" d="M113.4,8c-3,0-5.4,2.4-5.4,5.4l0,0v36.9c0,2.7,2,5,4.7,5.3c0.2,0,0.5,0.1,0.7,0.1h38.2l9.5,9.5v-9.5h9.2
		c3,0,5.4-2.4,5.4-5.4l0,0V13.4c0-3-2.4-5.4-5.4-5.4l0,0L113.4,8z"/>
	<path d="M112.6,63.7c0.2,0,0.5,0,0.7,0h34.9l20.8,20.8V63.7h1.2c7.4,0,13.4-6,13.4-13.4V13.4c0-7.4-6-13.4-13.4-13.4h-57
		c-7.4,0-13.4,6-13.4,13.4v36.9C99.9,57.5,105.5,63.3,112.6,63.7z M108,13.4c0-3,2.4-5.4,5.4-5.4l0,0h57c3,0,5.4,2.4,5.4,5.4l0,0
		v36.9c0,3-2.4,5.4-5.4,5.4l0,0h-9.2v9.5l-9.5-9.5h-38.2c-0.2,0-0.5,0-0.7-0.1c-2.7-0.4-4.7-2.6-4.7-5.3L108,13.4z"/>
	<path d="M36,158.3c0.3,0.3,0.5,0.6,0.6,0.9c1.4,5.2,4.5,9.7,8.8,12.8c5,3.5,10.4,4.3,16.1,1.7c6.2-2.8,9.7-8,11.8-14.2
		c0.2-0.5,0.4-0.9,0.8-1.3c4.1-4.6,6.3-9.7,5.6-16c-0.1-1.3-0.6-2.5-1.5-3.4c-0.2-0.3-0.4-0.6-0.4-0.9c-0.2-2.9-0.2-5.8-0.5-8.7
		c-0.4-3.1-1.3-6.1-2.8-8.8c-1.8-3.3-4.2-6.1-7.2-7.4c-3.8-1.8-8-2.7-12.2-2.7V110c-1.7,0.2-3.3,0.2-5,0.5c-4.1,0.5-7.9,2.2-11,4.8
		c-1.6,1.4-3,3.1-4.1,5c-1.3,2.2-2.1,4.7-2.3,7.3c-0.3,3.3-0.3,6.7-0.4,10c0,0.4-0.2,0.8-0.5,1c-0.8,0.6-1.3,1.5-1.6,2.5
		c-0.5,2.7-0.4,5.4,0.3,8C31.7,152.5,33.5,155.7,36,158.3z"/>
	<path d="M112.6,66.8c0,3-2.4,5.4-5.4,5.4H69l-9.5,9.5v-9.5h-9.2c-3,0-5.4-2.4-5.4-5.4l0,0V29.9c0-3,2.4-5.4,5.4-5.4l0,0h46.6v-8
		H50.3c-7.4,0-13.4,6-13.4,13.4c0,0,0,0,0,0v36.9c0,7.4,6,13.4,13.4,13.4h1.2V101l20.8-20.8h34.9c7.4,0,13.4-6,13.4-13.3h-7.3
		C113.1,66.8,112.9,66.8,112.6,66.8z"/>
	<path d="M215.5,180.6c-1-2.8-3.1-5-5.8-6.1c-2.3-1-4.5-2.1-6.8-3.1c-0.5-0.1-0.8-0.6-0.7-1.1c0-9.7,0-19.3,0-29c0-0.4,0-0.9,0-1.3
		c0-4.5,0.1-9-1.1-13.4c-4-9.6-14.1-16.4-25.9-16.4c-12.5,0-23,7.6-26.5,17.9c-0.6,3.1-0.9,6.3-0.8,9.5c0,0.8,0,1.6,0,2.4
		c0,10,0,20,0,30c0.1,0.7-0.3,1.4-1,1.6c-2.3,1-4.6,2.1-6.9,3.1c-2.5,1.1-4.5,3.2-5.4,5.8c-1,3-4,17.5-6.3,29.9
		c13.2,5.5,29.3,8.8,46.7,8.8s33.6-3.3,46.8-8.9C219.8,198.8,217.2,185.3,215.5,180.6z M193,152.6c-0.5,1.2-1,2.4-1.6,3.5
		c-1,1.9-2.1,3.6-3.3,5.3c-2,2.6-7.4,4.4-7.4,6.2s8.2,5.8,8.2,7.9s-6.3,3.7-8.7,6.5s-0.4,9.6-5.1,9.6s-2.7-6.8-5.1-9.6
		s-8.6-4.3-8.6-6.4s7.6-6.6,7.6-8.1s-7.1-5-9.4-8.9c-0.6-1-1.2-2.1-1.6-3.2c-2.3-5.2-4.1-11.7-4.1-13.8c0-2.6,25.6-9.5,27-11.4
		c4.3,4.9,14.7,14,14.7,15.7S193.9,150.4,193,152.6L193,152.6z"/>
	<path d="M104.9,187.8c-2.3-4.7-6-8.5-10.6-11c-2.8-1.5-5.6-2.8-8.5-4.1c-3.8-1.7-7.8-3.2-11.7-4.8c-0.3-0.2-0.7-0.1-1,0.2
		c0,0,0,0.1,0,0.1c-0.3,0.5-0.7,0.9-1.1,1.4c-4.2,4.7-9,8.2-15.5,8.6c-2.3,0.2-4.5,0.1-6.7-0.5c-5-1.5-9.4-4.6-12.6-8.8
		c-0.9-1.2-0.9-1.2-2.3-0.6c-5.8,2.4-11.7,4.7-17.4,7.5c-3.4,1.6-6.5,3.8-9,6.7c-2.3,2.9-4.2,6.1-5.5,9.5c-2,4.8-3.1,9.9-3.2,15.1
		c5.9,2.9,12.1,5.2,18.4,6.9c24,6.4,49.2,6.4,73.2,0c6.3-1.7,12.4-4,18.2-6.8c0-2-0.1-4-0.3-6C108.7,196.4,107.1,191.9,104.9,187.8z
		"/>
</g>
</svg>
