<?xml version="1.0" encoding="utf-8"?>
<!-- Generator: Adobe Illustrator 24.2.0, SVG Export Plug-In . SVG Version: 6.00 Build 0)  -->
<svg version="1.1" id="Layer_1" xmlns="http://www.w3.org/2000/svg" xmlns:xlink="http://www.w3.org/1999/xlink" x="0px" y="0px"
	 viewBox="0 0 137.7 152" style="enable-background:new 0 0 137.7 152;" xml:space="preserve">
<g>
	<path d="M124.4,76c0.9-1.1,1.8-2.1,2.6-3.2c10.1-12.9,13.1-24.7,8.4-33.3S119.3,27.1,103,28.7c-2.2,0.2-4.4,0.5-6.6,0.9
		C90.1,11.5,80.2,0,68.8,0S47.6,11.5,41.3,29.6c-2.3-0.4-4.5-0.7-6.6-0.9C18.4,27.1,6.8,31,2.2,39.5s-1.7,20.4,8.4,33.3
		c0.8,1.1,1.7,2.1,2.6,3.2c-0.9,1.1-1.8,2.1-2.6,3.2C0.5,92-2.5,103.9,2.2,112.4c4.1,7.5,13.5,11.1,25.9,11.1
		c4.4,0,8.9-0.4,13.3-1.2c6.2,18.1,16.2,29.6,27.5,29.6s21.3-11.5,27.5-29.6c4.4,0.8,8.8,1.2,13.3,1.2c12.4,0,21.8-3.7,25.9-11.1
		c4.7-8.6,1.7-20.4-8.4-33.3C126.2,78.1,125.4,77,124.4,76z M8.3,42.9C11,38,18,35.3,27.9,35.3c1.9,0,4,0.1,6.2,0.3
		c1.7,0.2,3.4,0.4,5.2,0.7c-1.7,6.5-3,13.2-3.8,19.9c-6.2,4.4-12.1,9.3-17.4,14.6c-0.7-0.8-1.3-1.6-1.9-2.4
		C7.9,58.1,5.1,48.8,8.3,42.9L8.3,42.9z M34.7,86.5c-4.2-3.2-8.2-6.7-11.9-10.5c3.7-3.7,7.7-7.2,11.9-10.5
		c-0.2,3.4-0.3,6.9-0.3,10.5S34.4,83,34.7,86.5L34.7,86.5z M8.3,109.1c-3.2-5.9-0.4-15.2,7.8-25.6c0.6-0.8,1.3-1.6,1.9-2.4
		c5.4,5.4,11.2,10.2,17.4,14.6c0.8,6.7,2,13.4,3.8,19.9C23.4,118.3,11.8,115.7,8.3,109.1L8.3,109.1z M94.5,51.1
		c-2.9-1.8-6-3.6-9.1-5.3c-2.5-1.4-5-2.7-7.6-3.9c4.5-1.6,9.1-3,13.8-4.1C92.8,42.1,93.8,46.6,94.5,51.1L94.5,51.1z M68.8,7
		c7.5,0,15.3,8.9,20.7,24c-7.1,1.7-14,4-20.7,6.8C62.1,35,55.2,32.7,48.2,31C53.5,15.8,61.3,7,68.8,7z M46.1,37.7
		c4.7,1.1,9.3,2.5,13.8,4.1c-2.5,1.2-5.1,2.5-7.6,3.9c-3.1,1.7-6.1,3.5-9.1,5.3C43.9,46.5,44.9,42.1,46.1,37.7z M43.2,100.9
		c2.9,1.8,6,3.6,9.1,5.3c2.5,1.4,5.1,2.7,7.6,3.9c-4.5,1.7-9.1,3-13.8,4.2C44.9,109.9,43.9,105.5,43.2,100.9L43.2,100.9z M68.8,145
		c-7.5,0-15.3-8.9-20.7-24c7.1-1.7,14-4,20.7-6.8c6.7,2.8,13.6,5.1,20.7,6.8C84.1,136.1,76.3,145,68.8,145z M91.6,114.3
		c-4.7-1.1-9.3-2.5-13.8-4.2c2.5-1.2,5.1-2.5,7.6-3.9c3.1-1.7,6.1-3.5,9.1-5.3C93.8,105.5,92.8,109.9,91.6,114.3z M95.6,91.8
		c-4.3,2.9-8.8,5.7-13.6,8.3c-4.5,2.5-8.9,4.6-13.2,6.5c-4.3-1.9-8.7-4-13.2-6.5c-4.8-2.6-9.3-5.4-13.6-8.3
		c-0.5-5-0.7-10.3-0.7-15.8s0.3-10.8,0.7-15.8c4.3-2.9,8.8-5.7,13.6-8.3c4.4-2.4,8.8-4.5,13.2-6.5c4.4,1.9,8.8,4.1,13.2,6.5
		c4.8,2.6,9.3,5.4,13.6,8.3c0.5,5,0.7,10.3,0.7,15.8S96.1,86.8,95.6,91.8L95.6,91.8z M103.6,35.6c2.2-0.2,4.2-0.3,6.2-0.3
		c9.9,0,16.9,2.6,19.6,7.6c3.2,5.9,0.4,15.2-7.8,25.6c-0.6,0.8-1.3,1.6-1.9,2.4c-5.4-5.4-11.2-10.2-17.4-14.6
		c-0.8-6.7-2-13.4-3.8-19.9C100.2,36,101.9,35.8,103.6,35.6L103.6,35.6z M103,65.5c4.2,3.2,8.2,6.7,11.9,10.5
		c-3.7,3.7-7.7,7.2-11.9,10.5c0.2-3.4,0.3-6.9,0.3-10.5S103.2,69,103,65.5L103,65.5z M129.4,109.1c-3.6,6.6-15.1,9.2-31,6.6
		c1.8-6.5,3-13.2,3.8-19.9c6.2-4.4,12.1-9.3,17.4-14.6c0.7,0.8,1.3,1.6,1.9,2.4C129.8,93.9,132.6,103.2,129.4,109.1L129.4,109.1z"/>
	<circle cx="68.8" cy="76" r="13"/>
</g>
</svg>
