<?xml version="1.0" encoding="utf-8"?>
<!-- Generator: Adobe Illustrator 24.2.0, SVG Export Plug-In . SVG Version: 6.00 Build 0)  -->
<svg version="1.1" id="Layer_1" xmlns="http://www.w3.org/2000/svg" xmlns:xlink="http://www.w3.org/1999/xlink" x="0px" y="0px"
	 viewBox="0 0 164.4 200.5" style="enable-background:new 0 0 164.4 200.5;" xml:space="preserve">
<g>
	<path d="M164.4,82.9c0-1-0.1-2-0.2-3c-0.5-18.1-7-35.4-18.5-49.4l-0.2-0.2c-13.1-16-31.8-26.4-52.2-29.2C89.9,0.6,86.4-0.2,82.9,0
		c-4.2,0.3-6.2,4.1-6.8,7.9c-0.3,1.4,0,2.8,0.9,3.9c1,0.9,2.4,0.9,3.8,0.9h4.5c0.2,0,0.5,0,0.7,0.1c0.2,0.1,0.5,0.3,0.7,0.5
		c0.9,0.6,2.2,0.3,2.7-0.7c0,0,0,0,0-0.1c0.2-0.6,0.3-1.3,0.4-2c0.5-2.4,2.3,0.3,3.7,0.2c0.9-0.1,1.7-0.8,2.6-0.9
		c2.2-0.3,3.3,2.7,5.4,3.6c1.6,0.7,3.5,0,5.2,0.5c2,0.6,3.2,2.6,2.6,4.6c-0.5,2-2.5,3.1-4.5,2.7c1,2.8,3.7,4.5,6.7,4.1
		c0.6,2-2,3.3-4.1,3.3s-4.4-0.4-5.8,1.2c-0.6,0.7-0.8,1.8-1.5,2.5c-1.3,1.6-4.4,1.7-4.7,3.7c-0.2,1,0.5,1.9,0.7,2.9
		c0.7,4.2-6.9,4.9-8.1,8.9c-0.5,1.6,0.2,3.4,0.9,4.9s1.4,3.3,0.9,4.9s-2.8,2.7-4,1.4c-0.4-0.6-0.7-1.4-0.8-2.2
		c-1.2-4.5-5.9-7.1-10.4-5.9c0,0,0,0-0.1,0c-2,0.7-3.7,2.1-5.8,2.3c-2.6,0.4-5.8-1-7.7,0.8c-0.8,0.9-1.3,2-1.4,3.2
		c-0.6,3.1-1.1,6.4,0.1,9.4c1.2,2.9,4.8,5.1,7.6,3.8c1.5-0.7,2.5-2.2,3.7-3.4s3.1-2.1,4.6-1.2s1.6,3.2,1.1,4.9s-1.3,3.6-0.7,5.3
		c3-0.4,7-0.3,7.9,2.6c0.5,1.5-0.1,3.1,0.1,4.6c0.5,4,5.7,5.3,9.7,5.6c1.5,0.1,3.2,0.2,4.4-0.8c0.7-0.7,1.2-1.4,1.7-2.2
		c2.5-3.5,7.2-4.4,10.9-2.3c0.6,0.5,1.4,0.9,2.1,1.2c3,0.9,5.4-3.2,8.5-3c2.6,0.1,4,3.1,5.4,5.3c1.4,2.3,4.4,4.4,6.4,2.6
		c1-1,1.2-2.8,2.6-3.3c1.5-0.5,2.8,1.3,3,2.8s-0.2,3.3,0.6,4.7c0.6,0.8,1.3,1.6,2,2.3c1.3,1.8,1.5,4.6,3.5,5.3
		c1,0.2,2.1,0.3,3.1,0.2c3.8,0.3,5.4,5.4,4.3,9s-4,6.5-5.7,9.9c-1.2,2.3-1.8,4.9-2.9,7.2c-2,4-5.3,7.1-8.6,10.1l-10.7,9.7
		c-4.3,3.9-8.6,7.8-13.8,10.4c-2.3,1.2-5.7,2.2-7.2,4.5c-1.7,3.1-2,6.8-0.9,10.2c0.4,0.9,1.1,1.8,2,1.7s1.4-0.9,1.9-1.7
		c2.8-4.9,4.7-10.4,10-13.1c0.4-0.3,0.9-0.4,1.5-0.4c0.8,0.2,1.3,1,1.6,1.8c2.2,5.8,1.7,12.3,2.4,18.5c0.2,1.9,0.8,4.1,2.6,4.8
		c2.2,0.9,4.5-1.1,5.6-3.2c2.3-4.6,1-9.1,1.7-13.9c0.3-2,2.3-11.2,5.3-5.9c0.7,1.2,0.7,2.6,1.1,3.9c0.3,0.9,0.2,2.5,1.1,3.1
		c0.8,0.4,1.7,0.2,2.2-0.5c0.2-0.4,0.4-0.9,0.4-1.4c0.3-2.2,0.6-4.6,0.7-6.9c0-1.3-0.2-2.7-0.4-4c-0.7-3.7-2.7-11.3,1.3-13.8
		c1.1-0.6,2.2-1,3.4-1.2c1.4-0.3,3.7-1.5,4.3,0c0.5,1.2-0.4,2.8,0.3,4.2c0.5,1,1.7,1.5,2.8,1.1c1-0.5,1.1-1.8,1.1-2.9l0.2-12.9
		c0.1-3.6-0.7-8.6,0.3-12.1s3.1-6.6,4.2-10c1.2-3.7,2.2-7.4,2.9-11.2C164.1,92.3,164.5,87.6,164.4,82.9z M99.2,67.5
		c-0.2,0.4-0.9,0.5-1.4,0.4c-2.2-0.3-4.5-0.6-6.2-2c-0.7-0.5-1.3-1.2-2.1-1.1c-0.4,0.1-0.7,0.2-1.1,0.4c-1.4,0.6-2.9,0.8-4.3,0.4
		c-0.5-0.1-1.1-0.5-1.1-1c0-0.2,0.1-0.5,0.3-0.7c1.1-1.3,2.9-2,4.6-1.8c1.7,0.2,3.4,0.7,5,1.5c-1.4-1.7-1.8-4-1-6.1
		c0.1-0.3,0.3-0.6,0.6-0.7c0.5-0.1,0.9,0.3,1.1,0.7c0.8,1.4,1.3,2.9,1.4,4.4c0.4-1-0.7-2.3-0.1-3.1c0.5-0.5,1.3-0.5,1.8-0.1
		c1.1,0.9,1.5,2.8,1.9,4.1c0.1,0.2,0.1,0.5,0.1,0.7c-0.1,0.8-1.2,0.9-2.1,0.8c1.1,0.5,1.9,1.3,2.5,2.3c0.1,0.2,0.2,0.4,0.2,0.7
		C99.3,67.4,99.3,67.5,99.2,67.5L99.2,67.5z M111.2,71.5c0,0.1-0.1,0.1-0.1,0.2c-0.1,0.1-0.3,0.2-0.4,0.2c-1.9,0.5-3.9-0.7-5.9-0.5
		c-1.3,0.2-2.5,0.9-3.8,0.5c-0.5-0.1-0.9-0.6-0.8-1c0.1-0.3,0.4-0.5,0.7-0.6c0.6-0.2,1.3-0.3,2-0.3c-0.3,0-0.7-0.2-0.9-0.4
		c-1.4-1.4,2.7-1.9,3.3-1.9c0.2,0,0.5,0.1,0.7,0.2c0.2,0.2,0,0.6-0.3,0.5c0.4,0.5,1.1,0.8,1.7,0.7c0.6-0.1,1.3-0.2,1.9-0.2
		c1.1,0.2,1.8,1.1,1.8,2.2C111.3,71.3,111.3,71.4,111.2,71.5L111.2,71.5z M115.9,23.3c-0.1,0.2-0.2,0.3-0.4,0.4
		c-0.1,0.1-0.3,0.1-0.4,0.1H115c-0.3,0-0.7,0-1-0.1c-0.3,0-0.6-0.1-0.8-0.2c-0.2,0-0.3,0.1-0.5,0.1h-0.5h-0.5h-0.2
		c-0.2,0-0.4-0.1-0.7-0.2c-0.2-0.1-0.4-0.3-0.5-0.5c-0.1-0.2-0.2-0.4-0.3-0.6c-0.1-0.2-0.1-0.4-0.1-0.7c0-0.2,0-0.3,0.1-0.5
		c0.1-0.3,0.2-0.7,0.3-1l0,0V20c0.1-0.2,0.1-0.3,0.2-0.4c0.1-0.1,0.2-0.2,0.3-0.3l0.2-0.1h0.2c0.1,0,0.1,0,0.2,0.1h0.2
		c0.2,0,0.4,0.1,0.5,0.3c0.1,0.1,0.2,0.2,0.3,0.4V20c0.2,0.2,0.3,0.4,0.5,0.6l0,0l0.3,0.3c0.2,0.1,0.3,0.2,0.5,0.3l0,0
		c0.1,0.1,0.3,0.2,0.5,0.2l0.4,0.1h0.1c0.3,0.1,0.6,0.2,0.8,0.4c0.2,0.1,0.3,0.3,0.4,0.5C115.9,22.7,116,23,115.9,23.3L115.9,23.3z"
		/>
	<path d="M104.5,137.1c-0.8-1.2-1.9-2.3-3.1-3.2c-3.4-3-6.3-6.5-8.5-10.4c-2.7-4.8-4.4-10.8-2.2-15.8c1.2-2.8,3.5-5.1,4.8-7.8
		s1.2-6.7-1.4-8.3c-2.9-1.7-6.6,0.5-9.8-0.5c-1.9-0.6-3.2-2.4-4.6-3.9c-4.9-5.5-21.9-17.1-19.8-1.1c0.5,2.3,1.1,4.6,1.8,6.8
		c0.6,2.3,0.8,4.8-0.2,6.9s-3.6,3.6-5.8,2.7c-2.3-1-2.9-3.9-3-6.5c-0.3-6.3,0.5-13.1-2.4-18.7c-2.3-4.7-4-9.7-5-14.8
		c-0.8-3.3-2.6-10.1-5.4-12.2c-0.5-0.4-1.1-0.6-1.7-0.6c-2,0.1-2.1,2.6-2.1,4c0,0.1,0,0.2-0.1,0.3c-0.1,0.1-0.1,0.1-0.2,0.2
		c-0.7,0.2-1.4,0.1-2-0.3c-0.7-0.5-1.1-1.3-1.3-2.1c-1.2-3.7-0.4-8.3-0.5-12.1c0-4.4,1.2-7,3.5-10.8c1.6-2.6,2.8-5.3,3.7-8.1
		c0.5-1.4,0.9-2.9,1.2-4.3c0.2-0.8,1.1-3.2,0.5-4c-0.2-0.2-0.5-0.1-0.8,0c-2.1,0.8-4.1,2-5.9,3.4l-1.5,1.2c-1.7,1.4-3.4,2.9-5,4.4
		c-4.2,3.7-7.9,7.8-11.3,12.2C10.2,42.1,5.5,51.7,2.8,62l-0.2,0.6c-2.1,8.2-3,16.6-2.5,25.1c0.9,14.6,5.7,28.7,13.8,40.9
		c4.4,6.6,5.1,14.5,5.8,22.3c0.4,4,0.6,8.2,2.4,11.7c0.3,0.5,0.8,1.1,1.3,0.9c0.2-0.1,0.4-0.3,0.5-0.5c1.3-1.9,1.8-4.2,1.7-6.5
		c-0.2-2.3-0.5-4.5-0.9-6.8c-0.3-1.1-0.2-2.3,0.1-3.4c1.7-4.2,8.9,2.4,11.2,3.7c3.3,1.9,4.9,6.2,5.7,9.7c0.8,4,1.1,8.2,0.9,12.3
		c0,2.7,0.4,6.2,3,7c2,0.7,4.2-0.8,5.1-2.7s0.9-4.1,0.8-6.2s-0.7-4.1,1.5-4.9s4.9,1.2,6,2.8c1.5,2.2,1.7,5.1,1.7,7.8
		c-0.1,3.5-0.6,7-1.6,10.4c-1,3.6-2.5,7.2-1.7,10.9c0.3,1.3,1.3,2.8,2.6,2.4c0.7-0.2,1.2-0.7,1.5-1.4c1.7-3.1,1.8-6.8,1.7-10.4
		c0-4.5,0-9-0.1-13.5c0-2.7,1-9.4,5.5-7.6c2.8,1.2,2,6.8,1.4,9c-0.8,3.3-2.5,6.4-3.1,9.7c-0.8,4.6,0.4,9.7,3.9,12.7
		s9.4,3.2,12.6-0.1c2-2.1,2.7-5.1,2.8-7.9s-0.4-5.7-0.3-8.6c0-6.7,2.8-12.3,6.4-17.7c0.9-1.3,1.9-2.6,2.8-4.1l6.7-10.3
		C104.3,145.8,106.8,140.9,104.5,137.1z"/>
</g>
</svg>
