<?xml version="1.0" encoding="utf-8"?>
<!-- Generator: Adobe Illustrator 24.2.0, SVG Export Plug-In . SVG Version: 6.00 Build 0)  -->
<svg version="1.1" id="Layer_1" xmlns="http://www.w3.org/2000/svg" xmlns:xlink="http://www.w3.org/1999/xlink" x="0px" y="0px"
	 viewBox="0 0 136.5 138.5" style="enable-background:new 0 0 136.5 138.5;" xml:space="preserve">
<style type="text/css">
	.st0{fill:#231F20;}
</style>
<g>
	<path d="M32.9,35.3c-9.4,1.4-18.7,3.6-27.8,6.6c-3.1,7.5-4.8,15.5-5,23.6h28.4C28.5,55.3,30,45.1,32.9,35.3z"/>
	<path d="M49.4,33.4c-4.5,0.3-8.9,0.8-13.2,1.4c-3,10-4.6,20.3-4.7,30.7h16.1c-3.3-3-4.4-7.1-4-11.7c0.1-1.5,0.9-2.8,2-3.8
		c1.5-1,1.6-2.1,1.5-3.5C47,42,47.3,37.5,49.4,33.4L49.4,33.4z"/>
	<path d="M39.8,18.5C45.1,9.3,51.5,3,58.6,0c-22.5,3.2-42,17.5-51.9,38c8.9-2.7,17.9-4.7,27.1-6C35.4,27.4,37.4,22.8,39.8,18.5z"/>
	<path d="M100.4,34.8c-4.3-0.6-8.8-1-13.3-1.4c0.6,1.4,1.1,2.8,1.4,4.3c0.7,3.1,0.5,6.5,0.8,9.7c0.2,0.7,0.5,1.5,1,2.1
		c0.8,1.5,2.4,2.8,2.5,4.3c0.6,4.3-1,8.7-4.1,11.7H105C105,55.1,103.4,44.8,100.4,34.8z"/>
	<path d="M96.7,18.5c2.4,4.3,4.4,8.8,6,13.5c9.2,1.3,18.3,3.3,27.1,6C120,17.5,100.5,3.2,78,0C85,3,91.5,9.4,96.7,18.5z"/>
	<path d="M34.2,90c5-4.2,11-6.5,17-8.7c1-0.4,2-0.7,2.9-1c2.1-0.8,2.4-2,1.3-4c-1.4-2.5-2.6-5-4-7.5c-0.1-0.1-0.1-0.2-0.2-0.3H31.5
		c0.1,7.3,0.9,14.6,2.4,21.8L34.2,90z"/>
	<path d="M80.5,78.1c-0.7,1.3,0.7,1.8,1.8,2.2c5.4,2.3,11,4.4,16.2,7.1c1.5,0.8,2.8,1.7,4.1,2.8c1.5-7.2,2.3-14.4,2.4-21.8H85.4
		C83.2,71.2,82.3,75,80.5,78.1z"/>
	<path d="M108.1,65.5h28.4c-0.2-8.1-1.9-16.1-5-23.6c-9-3-18.3-5.2-27.8-6.6C106.5,45.1,108,55.3,108.1,65.5z"/>
	<path d="M66.7,1.1C54.4,2,43.5,13.9,37.3,31.5c4.6-0.6,9.3-1,14.2-1.3c3.8-4.9,9.1-6.9,15.3-7.2V1.1z"/>
	<path d="M31.3,92.9c-1.8-8-2.8-16.2-2.9-24.4H0c0.1,6.1,1,12.2,2.7,18.1l0.6,0.2c8.9,3.1,18,5.4,27.3,6.8
		C30.9,93.4,31.1,93.2,31.3,92.9z"/>
	<path d="M85.1,30.2c4.9,0.3,9.6,0.8,14.2,1.3C93,13.9,82.2,2,69.8,1.1V23C76.5,23.4,81.8,25.9,85.1,30.2z"/>
	<path d="M108.1,68.5c-0.1,8.2-1,16.3-2.8,24.3c0.2,0.3,0.4,0.6,0.6,0.9c9.3-1.4,18.4-3.7,27.3-6.8l0.6-0.2c1.7-5.9,2.6-12,2.7-18.1
		L108.1,68.5z"/>
	<path d="M36.7,103c-2-0.5-4.1,0.5-5,2.4c-0.2,0.7-0.3,1.5-0.3,2.2c-0.1,6.8-0.1,13.5-0.1,20.3c10.5,6.6,22.6,10.3,35,10.5v-25.1
		c-6.5-2.4-12.9-4.7-19.4-7C43.5,105.2,40.1,104.1,36.7,103z"/>
	<path d="M104.7,105c-0.8-1.1-2-1.9-3.4-2.1c-0.5-0.1-0.9,0-1.4,0.1c-3.9,1.3-7.8,2.6-11.7,4c-6,2.1-12,4.3-18,6.5v25
		c12.5-0.3,24.6-3.9,35.1-10.7c0-7.1-0.1-14.1-0.1-21.2C105.3,106,105.1,105.4,104.7,105z"/>
	<path d="M19.3,117.4c0.8-2.3,1.5-4.6,2-7c0.7-3.6,3-7,5-11c0,0,2.8-2.8,3-3C22.6,95,8.8,91.9,3.3,90C5.8,97,14.7,111.7,19.3,117.4z
		"/>
	<path class="st0" d="M26.8,125.9c0,0-21.5-21.5-23.5-36.5l26.5,6.9C29.7,96.2,24.3,104.4,26.8,125.9"/>
	<path class="st0" d="M110.1,126.2c0,0,21.6-21.4,23.7-36.4l-26.5,6.7C107.3,96.6,112.7,104.8,110.1,126.2"/>
</g>
</svg>
