<?xml version="1.0" encoding="utf-8"?>
<!-- Generator: Adobe Illustrator 24.2.0, SVG Export Plug-In . SVG Version: 6.00 Build 0)  -->
<svg version="1.1" id="Layer_1" xmlns="http://www.w3.org/2000/svg" xmlns:xlink="http://www.w3.org/1999/xlink" x="0px" y="0px"
	 viewBox="0 0 231 231" style="enable-background:new 0 0 231 231;" xml:space="preserve">
<g>
	<path d="M142.5,94.6c-0.3-0.3-0.4-0.7-0.4-1.1c-0.2-3.3-0.3-6.7-0.6-10c-0.6-6.6-5-15.7-11.4-18.6c-4.3-2-9.1-3.1-13.9-3.1v-0.2
		c-1.9,0.2-3.8,0.3-5.7,0.6c-4.6,0.6-9,2.5-12.5,5.5c-4.2,3.6-6.8,8.6-7.3,14.1c-0.3,3.8-0.3,7.6-0.4,11.4c0,0.5-0.2,0.9-0.5,1.2
		c-0.9,0.7-1.5,1.7-1.8,2.8c-0.6,3-0.5,6.2,0.4,9.1c1.2,3.9,3.2,7.4,6,10.4c0.3,0.3,0.6,0.7,0.7,1.1c1.6,5.9,5.2,11.1,10.1,14.7
		c5.7,4,11.9,4.9,18.4,2c7.1-3.2,11.1-9.1,13.5-16.3c0.2-0.5,0.5-1,0.9-1.5c4.6-5.2,7.2-11.1,6.4-18.2
		C144.2,97,143.5,95.6,142.5,94.6z"/>
	<path d="M231,115.5l-20.7-12v8h-17.1c-2.1-39.8-33.9-71.6-73.7-73.7V20.7h8L115.5,0l-12,20.7h8v17.1c-39.8,2.1-71.6,33.9-73.7,73.7
		H20.7v-8L0,115.5l20.7,12v-8h17.1c2.1,39.8,33.9,71.6,73.7,73.7v17.1h-8l12,20.7l12-20.7h-8v-17.1c39.8-2.1,71.6-33.9,73.7-73.7
		h17.1v8L231,115.5z M172.5,155.6c-0.8-2-1.7-4-2.6-5.9c-2.5-5-6.4-9.2-11.4-11.9c-3-1.6-6.1-3.1-9.2-4.4c-4.2-1.8-8.4-3.4-12.6-5.1
		c-0.3-0.2-0.8-0.1-1,0.2c0,0,0,0.1,0,0.1c-0.4,0.5-0.8,1-1.2,1.5c-4.5,5-9.7,8.8-16.7,9.2c-2.4,0.3-4.9,0.1-7.3-0.6
		c-5.4-1.7-10.2-5-13.6-9.5c-1-1.3-1-1.3-2.5-0.7c-6.3,2.5-12.6,5-18.8,8.1c-3.7,1.7-7,4.2-9.7,7.2c-2.5,3.1-4.5,6.5-5.9,10.2
		c-0.3,0.8-0.6,1.6-0.9,2.5c-22.7-31.1-15.9-74.8,15.2-97.5c31.1-22.7,74.8-15.9,97.5,15.2C189.5,98.4,189.8,131.2,172.5,155.6
		L172.5,155.6z"/>
</g>
</svg>
