<?xml version="1.0" encoding="utf-8"?>
<!-- Generator: Adobe Illustrator 24.2.0, SVG Export Plug-In . SVG Version: 6.00 Build 0)  -->
<svg version="1.1" id="Layer_1" xmlns="http://www.w3.org/2000/svg" xmlns:xlink="http://www.w3.org/1999/xlink" x="0px" y="0px"
	 viewBox="0 0 168.8 161" style="enable-background:new 0 0 168.8 161;" xml:space="preserve">
<g>
	<path d="M130.4,115.3c-1.9-0.9-3.8-1.8-5.8-2.6c-0.4-0.1-0.7-0.6-0.6-1c0-8.5,0-17.1,0-25.7c0-4.2,0.1-8.5-1.3-12.6
		c0.8-0.3,2.6-1,4.6-1.8v11h-0.3c-0.6,0-1.1,0.5-1.1,1.1l0,0v2c0,0.6,0.5,1.1,1.1,1.1l0,0h3.3c0.6,0,1.1-0.5,1.1-1.1l0,0v-2
		c0-0.6-0.5-1.1-1.1-1.1l0,0h-0.3V70.6c2.8-1.1,5.2-2.2,5.3-2.6c0.5-1.3-0.2-2.6-1.8-3.1l-31.5-11.4c-0.7-0.3-1.5-0.3-2.2,0
		c-4.1,1.5-8.2,3-12.3,4.4l-19.5,7c-1.2,0.4-1.9,1.7-1.6,2.9c0.2,0.8,0.8,1.3,1.6,1.6l1.6,0.6l9.6,3.5c-1,3.4-1.5,7-1.4,10.5
		c0,3.8,0,7.6,0,11.4c-0.4-2.1-1-4.2-1.6-6.2c-0.8-2.3-2.6-4.2-4.9-5.1c-1.9-0.9-3.8-1.8-5.8-2.6c-0.4-0.1-0.7-0.6-0.6-1
		c0-8.5,0-17.1,0-25.7c0-4.2,0.1-8.5-1.3-12.6c0.8-0.3,2.6-1,4.6-1.8v11h-0.3c-0.6,0-1.1,0.5-1.1,1.1l0,0v2c0,0.6,0.5,1.1,1.1,1.1
		l0,0h3.3c0.6,0,1.1-0.5,1.1-1.1l0,0v-2c0-0.6-0.5-1.1-1.1-1.1l0,0h-0.3V39.3c2.8-1.1,5.2-2.2,5.3-2.6c0.5-1.3-0.2-2.6-1.8-3.1
		L43.2,22.1c-0.7-0.3-1.5-0.3-2.2,0c-4.1,1.5-8.2,3-12.3,4.4l-19.5,7C8,34,7.3,35.3,7.7,36.5c0.2,0.8,0.8,1.3,1.6,1.6l1.6,0.6
		l9.6,3.5c-1,3.4-1.5,7-1.4,10.5c0,9.2,0,18.3,0,27.5c0.1,0.6-0.3,1.2-0.8,1.4c-2,0.8-3.9,1.8-5.8,2.6C10.3,85,8.6,86.8,7.9,89
		c-1.4,4.2-7.4,35.5-7.9,40.7h64.7c-2.3,11-5.4,27.6-5.7,31.3h84.1c-0.2-1.8-5.1-33.2-7.7-40.5C134.5,118.1,132.7,116.2,130.4,115.3
		z M59.2,61.2c-0.4,1.3-1.3,3-1.8,4.4c-1.1,2.7-2.5,5.2-4.2,7.5c-1.7,2.2-6.2,3.7-6.2,5.2s6.9,4.9,6.9,6.7s-5.4,3.1-7.4,5.5
		s-0.4,8.1-4.3,8.1s-2.3-5.7-4.3-8.1s-7.3-3.7-7.3-5.4s6.4-5.5,6.4-6.9s-6-4.3-7.9-7.5c-2.2-4-3.8-8.3-4.7-12.8
		c-0.1-0.5-0.2-1.1-0.2-1.6c0-0.1,0.1-0.3,0.2-0.4c2.1-2.5,21.5-7.8,22.6-9.3c3.3,3.7,10.8,10.4,12.2,12.7c0.1,0.2,0.2,0.4,0.2,0.6
		C59.4,60.3,59.3,60.7,59.2,61.2L59.2,61.2z M118.2,92.5c-0.4,1.3-1.3,3-1.8,4.4c-1.1,2.7-2.5,5.2-4.2,7.5c-1.7,2.2-6.2,3.7-6.2,5.2
		s6.9,4.9,6.9,6.7s-5.4,3.1-7.4,5.5s-0.4,8.1-4.3,8.1s-2.3-5.7-4.3-8.1s-7.3-3.7-7.3-5.4s6.4-5.5,6.4-6.9s-6-4.3-7.9-7.5
		c-2.2-4-3.8-8.3-4.7-12.8c-0.1-0.5-0.2-1.1-0.2-1.6c0-0.1,0.1-0.3,0.2-0.4c2.1-2.5,21.5-7.8,22.6-9.3c3.3,3.7,10.8,10.4,12.2,12.7
		c0.1,0.2,0.2,0.4,0.2,0.6C118.4,91.6,118.3,92,118.2,92.5L118.2,92.5z"/>
	<path d="M161.2,64.4c2.7-28.8-18.5-54.3-47.4-57c-3.9-0.4-7.7-0.3-11.6,0.2L99.6,0L83.9,18.1l23.5,4.5l-2.5-7.2
		c24.4-2.2,46,15.7,48.3,40.2c0.2,2.2,0.2,4.3,0.1,6.5l-7.3-2.3l5.3,23.3l17.5-16.3L161.2,64.4z"/>
</g>
</svg>
